<?xml version="1.0" standalone="no"?>
<!DOCTYPE svg PUBLIC "-//W3C//DTD SVG 20010904//EN"
 "http://www.w3.org/TR/2001/REC-SVG-20010904/DTD/svg10.dtd">
<svg version="1.0" xmlns="http://www.w3.org/2000/svg"
 width="1920.000000pt" height="1080.000000pt" viewBox="0 0 1920.000000 1080.000000"
 preserveAspectRatio="xMidYMid meet">

<g transform="translate(0.000000,1080.000000) scale(0.100000,-0.100000)"
fill="#000000" stroke="none">
<path d="M9553 7953 c-20 -4 -22 -9 -18 -46 7 -54 32 -358 40 -467 3 -47 8
-102 11 -123 6 -36 8 -38 37 -35 l32 3 1 100 c1 98 -6 212 -21 348 -10 89 7
88 34 -3 22 -70 98 -364 107 -410 7 -32 6 -32 58 -37 33 -4 47 -2 50 8 3 8 10
102 16 209 6 107 14 240 17 295 12 172 15 160 -38 163 l-46 3 -6 -44 c-3 -24
-6 -138 -6 -253 0 -115 -4 -210 -9 -212 -5 -1 -17 35 -26 80 -10 46 -41 161
-69 256 l-51 172 -45 -1 c-25 -1 -56 -4 -68 -6z"/>
<path d="M9225 7905 c-82 -19 -160 -34 -172 -34 -12 -1 -25 -5 -28 -11 -10
-16 17 -91 30 -86 28 11 103 17 108 9 5 -8 89 -353 102 -419 6 -30 4 -32 -40
-44 -44 -12 -46 -14 -39 -44 8 -41 23 -68 33 -62 4 3 21 7 37 10 16 3 73 15
128 26 54 11 99 20 100 20 0 0 -1 21 -3 46 l-3 46 -49 -4 c-27 -3 -51 -2 -54
1 -6 10 -75 421 -75 447 0 20 7 24 48 29 70 10 75 12 68 38 -3 12 -6 32 -6 45
0 28 0 28 -185 -13z"/>
<path d="M10048 7898 c-3 -24 -3 -45 -2 -47 2 -2 26 -6 54 -9 27 -2 53 -10 58
-16 8 -10 3 -48 -46 -356 l-17 -105 -45 -3 c-50 -4 -60 -13 -60 -59 0 -29 3
-33 38 -39 20 -3 81 -15 135 -25 54 -10 100 -19 102 -19 8 0 26 72 22 84 -3 7
-22 17 -42 20 -20 4 -38 13 -41 21 -3 8 15 105 40 215 25 111 46 211 46 222 0
19 4 20 43 13 84 -15 90 -14 100 28 5 21 7 41 4 43 -6 6 -342 73 -368 74 -13
0 -18 -11 -21 -42z"/>
<path d="M10543 7758 c-13 -40 -46 -147 -74 -238 -29 -91 -60 -194 -70 -229
-10 -34 -21 -71 -24 -81 -4 -13 3 -21 25 -30 17 -7 33 -10 36 -7 15 14 113
301 144 420 12 43 25 65 35 55 4 -4 -26 -272 -48 -430 l-13 -96 34 -17 c19 -9
38 -12 43 -8 7 8 32 53 137 253 30 58 81 154 113 213 33 59 59 111 59 115 0 8
-90 55 -95 50 -6 -8 -137 -303 -150 -340 -9 -24 -23 -62 -32 -85 -14 -42 -33
-57 -33 -29 0 8 7 47 15 87 14 66 45 348 45 409 0 22 -6 28 -47 39 -27 7 -55
15 -63 18 -11 3 -21 -15 -37 -69z"/>
<path d="M8705 7749 c-38 -16 -73 -33 -77 -37 -7 -7 17 -102 70 -277 40 -135
79 -270 94 -327 14 -53 26 -58 68 -28 l29 20 -20 71 c-11 39 -20 75 -22 81 -3
13 81 57 108 57 14 0 28 -17 50 -60 39 -79 44 -83 94 -69 42 11 52 29 27 49
-8 7 -24 31 -36 54 -11 23 -34 65 -51 92 -16 28 -36 64 -45 80 -8 17 -30 55
-49 85 -19 30 -42 71 -53 90 -23 43 -56 100 -73 129 -17 27 -29 26 -114 -10z
m91 -147 c10 -20 29 -50 41 -67 37 -52 74 -125 68 -135 -7 -11 -64 -40 -80
-40 -10 0 -29 45 -40 99 -2 9 -13 52 -24 96 -11 44 -21 89 -21 99 0 18 1 18
19 2 10 -9 27 -33 37 -54z"/>
<path d="M8345 7539 c-22 -4 -57 -16 -77 -27 -46 -24 -178 -121 -178 -131 0
-12 97 -140 140 -186 21 -22 68 -80 105 -129 36 -49 91 -116 120 -149 l54 -59
35 27 c20 15 36 28 36 29 0 1 -31 45 -70 97 -38 52 -70 99 -70 105 0 6 7 17
15 24 17 14 40 0 160 -99 l69 -58 43 21 c23 12 42 24 43 28 0 4 -44 44 -97 88
-123 102 -126 107 -112 149 25 72 -20 197 -88 243 -47 31 -76 38 -128 27z m64
-137 c32 -37 54 -90 47 -117 -8 -32 -45 -75 -64 -75 -10 0 -44 37 -80 86 -69
94 -70 103 -7 130 39 18 74 9 104 -24z"/>
<path d="M11090 7534 c-35 -13 -96 -44 -111 -56 -38 -31 -118 -151 -149 -224
-28 -66 -33 -92 -34 -159 -1 -74 1 -83 29 -122 47 -66 148 -95 193 -55 39 34
180 229 174 239 -4 5 -34 29 -66 51 l-60 41 -23 -34 c-28 -41 -28 -47 -3 -63
19 -11 19 -14 5 -41 -8 -16 -20 -35 -27 -43 -7 -7 -21 -25 -31 -40 -21 -33
-36 -35 -68 -9 -19 15 -23 27 -21 65 3 71 88 231 159 298 76 72 173 61 190
-23 5 -28 8 -29 42 -23 60 10 61 11 54 46 -8 45 -61 113 -103 133 -36 18 -124
29 -150 19z"/>
<path d="M7859 7165 c-85 -85 -155 -159 -157 -164 -4 -11 48 -61 63 -61 6 0
28 23 49 50 21 28 46 50 55 50 9 0 57 -40 107 -88 50 -48 133 -125 184 -172
51 -47 101 -94 112 -105 18 -19 19 -19 53 15 l35 35 -76 80 c-213 224 -300
318 -306 329 -7 13 27 55 76 94 l29 22 -36 35 -35 34 -153 -154z"/>
<path d="M9450 7195 c-421 -66 -807 -262 -1105 -562 -544 -546 -707 -1342
-424 -2056 63 -158 188 -374 277 -477 l30 -35 26 59 c43 96 43 95 -17 187
-305 470 -371 1037 -182 1567 31 85 35 109 35 195 l0 97 53 0 c50 0 53 2 74
38 104 183 327 410 538 548 196 128 480 239 685 269 82 12 73 2 137 153 13 32
13 32 -14 31 -16 -1 -66 -7 -113 -14z"/>
<path d="M9870 7205 c0 -3 18 -41 40 -84 l39 -79 63 -7 c88 -10 307 -67 403
-105 124 -49 301 -144 405 -218 122 -86 326 -290 412 -412 177 -249 300 -581
323 -870 6 -68 19 -117 67 -250 33 -91 64 -169 68 -173 8 -9 16 57 26 208 12
191 -27 459 -98 670 -231 693 -840 1199 -1576 1310 -99 15 -172 19 -172 10z"/>
<path d="M10010 6915 c0 -3 14 -33 31 -68 l32 -64 69 -16 c100 -24 267 -89
361 -141 177 -96 373 -260 476 -398 l43 -58 75 0 c83 0 82 -6 19 79 -183 251
-449 455 -743 572 -97 38 -363 107 -363 94z"/>
<path d="M9325 6880 c-246 -64 -457 -173 -656 -338 -114 -95 -266 -263 -323
-359 -5 -10 12 -13 77 -13 l85 0 43 58 c162 216 451 416 734 507 l117 38 20
46 c36 84 38 91 25 91 -6 -1 -62 -14 -122 -30z"/>
<path d="M11869 6852 c-13 -10 -76 -44 -139 -75 -98 -50 -181 -93 -393 -203
l-37 -20 29 -34 c26 -30 32 -33 48 -23 10 7 34 20 53 28 19 9 42 23 52 31 21
20 33 13 58 -34 11 -20 26 -45 32 -54 11 -15 3 -25 -50 -74 -34 -32 -62 -65
-62 -74 0 -10 9 -29 21 -44 l21 -26 101 91 c166 149 191 172 251 224 32 28 80
71 107 96 l49 47 -47 78 c-27 42 -53 79 -59 81 -6 2 -22 -5 -35 -15z m-36
-180 c-84 -78 -162 -146 -172 -150 -12 -4 -64 76 -58 90 2 7 22 19 43 27 34
12 89 36 184 78 14 7 34 12 45 12 15 0 4 -14 -42 -57z"/>
<path d="M10166 6593 c14 -32 28 -63 30 -69 3 -6 23 -16 44 -23 130 -39 341
-173 473 -300 44 -42 71 -61 75 -54 4 7 30 13 57 15 l50 3 -110 111 c-164 164
-342 275 -559 348 -43 14 -80 26 -82 26 -2 0 8 -26 22 -57z"/>
<path d="M9231 6590 c-189 -79 -350 -189 -491 -336 l-85 -89 73 -3 73 -3 77
71 c93 86 220 172 324 220 l76 35 30 73 c17 39 28 72 24 71 -4 0 -49 -18 -101
-39z"/>
<path d="M11950 6411 c-19 -4 -75 -27 -123 -52 -97 -48 -184 -124 -217 -189
-23 -45 -26 -113 -7 -157 14 -34 60 -77 94 -87 19 -6 25 -2 39 26 16 34 15 34
-15 67 -17 18 -31 42 -31 53 0 51 82 131 176 173 21 9 55 24 74 33 19 8 63 16
97 16 55 1 65 -2 91 -27 34 -32 44 -69 31 -105 -8 -21 -5 -25 34 -42 56 -25
69 -13 69 67 0 74 -30 138 -86 182 -60 47 -132 61 -226 42z"/>
<path d="M7271 6299 c-18 -44 -31 -85 -29 -91 4 -10 57 -45 108 -70 14 -7 62
-34 108 -60 46 -27 86 -48 89 -48 3 0 46 -24 96 -54 96 -56 172 -96 182 -96 9
0 36 70 31 78 -2 4 -36 23 -75 42 -40 20 -70 41 -71 50 0 14 46 120 52 120 2
0 39 -11 83 -25 44 -14 80 -25 81 -25 4 0 36 81 33 83 -11 8 -625 177 -644
177 -7 0 -27 -36 -44 -81z m257 -70 c90 -22 132 -36 132 -46 0 -27 -29 -83
-43 -83 -13 0 -226 119 -254 142 -17 13 -6 30 15 24 10 -2 77 -19 150 -37z"/>
<path d="M10309 6304 c36 -70 48 -84 102 -119 65 -41 191 -160 250 -233 l34
-43 22 56 22 57 -82 85 c-91 95 -176 162 -281 222 -113 64 -113 64 -67 -25z"/>
<path d="M9124 6291 c-49 -32 -107 -75 -129 -94 l-40 -36 86 -1 c58 0 90 4 97
13 11 13 82 177 77 177 -1 0 -43 -26 -91 -59z"/>
<path d="M8140 5535 l0 -575 175 0 175 0 0 235 0 235 195 0 195 0 0 -235 0
-235 175 0 175 0 0 575 0 575 -175 0 -175 0 0 -200 0 -200 -195 0 -195 0 0
200 0 200 -175 0 -175 0 0 -575z m1050 -5 l0 -530 -130 0 -130 0 0 148 c0 81
-3 190 -6 243 l-7 97 -111 6 c-234 12 -371 12 -372 -1 -1 -7 -2 -116 -3 -243
l-1 -230 -115 0 -115 0 0 510 0 510 120 0 120 0 0 -185 0 -185 240 0 240 0 0
195 0 195 135 0 135 0 0 -530z"/>
<path d="M9390 5970 l0 -140 180 0 180 0 0 -435 0 -435 175 0 175 0 0 435 0
435 180 0 180 0 0 140 0 140 -535 0 -535 0 0 -140z m1020 5 l0 -95 -175 0
-175 0 -2 -432 -3 -433 -124 -3 c-93 -2 -126 1 -133 10 -4 7 -8 203 -8 436 l0
422 -175 0 -175 0 0 95 0 95 485 0 485 0 0 -95z"/>
<path d="M10622 5543 c-117 -313 -212 -571 -212 -575 0 -5 79 -8 175 -8 l174
0 26 83 c14 46 25 88 25 95 0 9 53 12 209 12 l209 0 6 -27 c4 -16 16 -58 27
-95 l20 -68 179 0 c99 0 180 3 180 8 0 4 -95 262 -212 575 l-213 567 -190 0
-190 0 -213 -567z m760 -3 c109 -283 198 -518 198 -522 0 -5 -65 -8 -144 -8
l-143 0 -29 103 -30 102 -218 0 -219 0 -31 -100 -32 -100 -127 -3 c-70 -1
-127 1 -127 4 0 4 88 241 197 526 l196 518 156 -2 155 -3 198 -515z"/>
<path d="M10937 5652 c-48 -148 -87 -273 -87 -276 0 -3 76 -6 169 -6 l169 0
-64 218 c-35 119 -71 243 -81 276 l-18 59 -88 -271z m148 -37 c32 -104 60
-196 62 -202 4 -10 -25 -13 -125 -13 l-129 0 58 193 c66 214 68 221 73 216 2
-2 29 -89 61 -194z"/>
<path d="M7147 5928 c-9 -34 -15 -63 -14 -65 2 -1 36 -9 77 -17 41 -9 98 -22
125 -29 l50 -12 -2 -48 c-2 -76 -4 -77 -147 -52 -93 16 -126 19 -130 10 -6
-17 -19 -125 -15 -125 11 0 391 -42 499 -55 177 -21 167 -23 172 28 3 23 1 44
-3 47 -4 3 -69 16 -145 29 l-136 24 5 55 c3 30 8 57 11 60 4 3 41 -2 84 -12
180 -41 207 -45 213 -38 4 4 10 26 14 50 5 32 4 42 -7 42 -7 0 -51 11 -98 25
-136 40 -518 145 -528 145 -5 0 -17 -28 -25 -62z"/>
<path d="M12170 5910 c-91 -10 -238 -25 -328 -33 -89 -8 -165 -17 -168 -20 -3
-2 -1 -20 4 -38 l9 -34 91 3 90 2 13 -54 c6 -30 9 -61 6 -68 -3 -8 -39 -25
-81 -37 l-76 -23 0 -44 c0 -29 4 -44 13 -44 14 0 104 26 132 39 11 5 128 44
260 87 132 42 243 80 246 83 8 7 -32 202 -40 200 -3 -1 -80 -9 -171 -19z m110
-98 c0 -12 -30 -26 -154 -72 -148 -54 -144 -55 -161 27 l-6 31 53 6 c29 4 80
7 113 9 33 1 81 3 108 5 26 2 47 -1 47 -6z"/>
<path d="M12360 5504 c-18 -4 -546 -44 -585 -44 l-27 0 4 -88 c4 -79 7 -92 36
-134 56 -82 168 -122 342 -122 98 0 122 3 164 22 101 46 141 120 138 260 -1
51 -4 97 -7 103 -6 9 -35 10 -65 3z m-20 -158 c0 -82 -64 -112 -241 -110 -168
2 -256 36 -247 96 3 22 8 23 103 28 55 3 164 6 243 8 l142 3 0 -25z"/>
<path d="M7080 5270 c0 -177 3 -230 13 -230 6 0 28 3 48 6 l36 6 -5 74 c-4 57
-1 75 9 78 8 2 93 7 189 10 192 7 362 17 370 22 9 4 11 68 2 80 -6 9 -303 22
-544 24 l-28 0 0 80 0 80 -45 0 -45 0 0 -230z"/>
<path d="M8568 5347 c-5 -10 -7 -51 -7 -90 l1 -72 10 55 c10 64 8 136 -4 107z"/>
<path d="M11736 5022 c-8 -27 -47 -254 -44 -257 6 -4 71 -25 79 -25 9 0 22 42
39 123 13 65 10 64 122 45 38 -6 72 -17 75 -24 2 -7 -2 -45 -10 -84 -8 -39
-11 -72 -7 -75 4 -2 25 -7 47 -11 l40 -6 12 63 c19 94 21 99 37 99 43 0 156
-25 160 -35 3 -6 -4 -53 -16 -103 -11 -51 -20 -96 -20 -100 0 -5 19 -14 41
-21 49 -15 54 -11 64 58 4 25 17 100 30 165 13 66 22 123 20 127 -3 3 -31 9
-62 12 -111 10 -548 57 -575 62 -19 3 -28 0 -32 -13z"/>
<path d="M7706 5023 l-38 -4 6 -49 c4 -27 3 -51 -2 -54 -9 -5 -342 -63 -419
-73 -48 -6 -48 -6 -58 70 l-6 49 -42 -7 c-23 -4 -44 -9 -47 -10 -3 -2 6 -66
21 -142 45 -227 50 -244 68 -239 9 3 29 8 44 12 25 6 28 10 23 33 -4 14 -9 42
-12 63 l-6 36 58 12 c33 6 93 20 134 30 143 36 263 60 271 54 5 -3 12 -23 15
-45 l7 -40 41 7 c66 10 64 -6 24 172 -11 52 -21 101 -22 110 -3 19 -8 20 -60
15z"/>
<path d="M11123 4890 c12 -31 27 -40 27 -16 0 8 3 21 6 30 5 12 0 16 -19 16
-24 0 -25 -2 -14 -30z"/>
<path d="M11247 4828 c-16 -51 -44 -128 -62 -171 l-34 -77 30 -67 31 -66 25
43 c41 68 101 214 133 322 17 55 30 102 30 104 0 2 -28 4 -63 4 l-62 0 -28
-92z"/>
<path d="M11525 4908 c-2 -7 -11 -41 -20 -75 -36 -146 -124 -353 -201 -474
l-27 -43 37 -74 c21 -42 41 -71 46 -66 54 58 187 308 240 454 28 77 80 259 80
281 0 15 -150 11 -155 -3z"/>
<path d="M8120 4893 c0 -28 48 -177 86 -265 36 -84 128 -253 143 -263 5 -2 22
28 38 67 l30 71 -45 96 c-25 53 -60 141 -78 196 -36 110 -38 112 -126 114 -39
1 -48 -2 -48 -16z"/>
<path d="M8400 4887 c0 -19 50 -160 72 -200 l14 -29 27 64 c31 72 31 75 15
128 -9 29 -18 40 -33 40 -11 0 -37 3 -57 6 -31 5 -38 4 -38 -9z"/>
<path d="M9715 4853 c-156 -14 -349 -73 -467 -144 -78 -46 -196 -156 -222
-207 -16 -31 -1 -24 366 159 211 105 385 193 387 195 2 2 -2 3 -10 2 -8 -1
-32 -3 -54 -5z"/>
<path d="M9840 4857 c4 -4 659 -301 758 -343 50 -22 39 0 -41 80 -150 150
-363 236 -647 261 -41 4 -73 5 -70 2z"/>
<path d="M11056 4768 c15 -29 28 -55 30 -57 3 -3 26 49 38 87 7 21 4 22 -43
22 l-51 0 26 -52z"/>
<path d="M9066 4472 c-493 -165 -729 -248 -709 -250 25 -3 1506 45 2438 78
149 5 312 10 364 10 52 0 92 2 89 5 -6 6 -135 42 -852 240 -313 86 -574 158
-580 160 -6 2 -344 -108 -750 -243z"/>
<path d="M11656 4664 c-17 -44 -9 -50 127 -98 73 -25 189 -60 259 -77 180 -45
153 -65 -45 -35 -180 28 -194 28 -201 9 -5 -12 0 -24 17 -38 59 -49 74 -60
148 -116 105 -77 127 -99 98 -99 -9 0 -110 55 -179 99 -30 19 -302 143 -305
139 -1 -2 -8 -14 -15 -27 -10 -19 -9 -26 2 -36 15 -14 533 -279 563 -288 16
-5 25 3 47 43 l27 49 -75 61 c-42 33 -102 78 -135 101 -69 47 -76 65 -21 55
65 -12 155 -24 228 -30 68 -7 71 -6 82 18 6 13 14 39 17 58 l6 33 -93 29 c-51
16 -140 43 -198 61 -256 80 -338 105 -343 105 -3 0 -8 -7 -11 -16z"/>
<path d="M7705 4606 c-71 -18 -211 -52 -310 -76 -99 -23 -184 -46 -188 -50
-11 -9 13 -90 26 -90 9 0 257 75 287 87 8 4 17 7 20 8 3 1 12 4 20 7 8 3 50
18 94 33 102 34 123 20 34 -24 -35 -17 -85 -45 -113 -61 -27 -17 -63 -37 -80
-44 -60 -29 -68 -41 -53 -73 16 -33 8 -34 199 23 81 24 151 44 158 44 31 0 0
-22 -111 -79 -68 -35 -154 -81 -193 -102 -38 -21 -89 -48 -112 -58 -24 -11
-43 -23 -43 -25 0 -5 40 -86 46 -94 1 -2 23 10 48 27 24 17 48 31 51 31 4 0
32 17 63 38 113 77 185 122 194 122 5 0 29 15 54 33 24 17 69 48 99 67 60 37
68 58 37 98 l-18 23 -133 -40 c-73 -23 -137 -44 -142 -47 -6 -3 -23 -9 -39
-14 -40 -11 -42 14 -2 29 15 5 41 18 57 28 115 69 180 105 201 113 13 5 24 14
24 20 0 19 -29 80 -37 79 -4 0 -66 -15 -138 -33z"/>
<path d="M7945 4254 c-39 -21 -88 -47 -110 -60 -22 -12 -65 -36 -95 -52 -30
-17 -80 -44 -110 -61 -73 -40 -118 -65 -157 -85 -18 -10 -35 -21 -38 -26 -7
-12 32 -99 47 -105 15 -6 62 17 128 61 62 41 96 57 107 51 5 -4 22 -24 38 -46
34 -49 30 -55 -64 -111 -36 -21 -79 -50 -95 -63 l-29 -24 34 -48 c19 -26 38
-53 43 -60 9 -13 22 -4 200 149 33 28 69 60 80 71 12 12 44 39 71 60 28 22 53
45 57 51 4 6 30 29 58 50 27 21 50 43 50 49 -1 12 -35 55 -45 55 -4 0 -37 -22
-74 -49 -95 -70 -169 -113 -181 -106 -6 3 -18 23 -27 43 -9 20 -19 40 -21 44
-2 3 18 19 45 34 26 15 62 38 78 50 17 12 39 25 50 28 11 4 33 17 49 30 l29
24 -20 28 c-11 16 -22 35 -24 42 -3 9 -24 2 -74 -24z"/>
<path d="M11426 4190 l-26 -39 53 -38 c28 -21 69 -50 90 -63 31 -21 78 -81
132 -171 60 -99 166 -249 175 -249 6 0 39 44 72 96 5 7 -15 38 -48 75 -30 35
-77 90 -104 121 -28 31 -50 62 -50 68 0 14 -3 15 138 -34 57 -20 123 -37 147
-39 44 -2 45 -1 75 50 l30 52 -53 11 c-28 6 -133 26 -232 45 -176 35 -181 36
-265 89 -47 29 -90 56 -96 59 -7 4 -23 -11 -38 -33z"/>
<path d="M10490 4149 c-96 -4 -201 -7 -233 -8 l-59 -1 77 -147 c42 -82 78
-150 80 -152 2 -2 32 14 67 35 83 51 189 156 222 222 15 30 26 55 24 55 -2 1
-82 -1 -178 -4z"/>
<path d="M9227 4109 c-109 -4 -201 -10 -204 -13 -10 -10 49 -86 107 -138 58
-52 144 -108 202 -132 l34 -15 62 147 c34 81 62 150 62 155 0 4 -15 6 -32 5
-18 0 -122 -4 -231 -9z"/>
</g>
</svg>
